<mxfile host="app.diagrams.net" modified="2022-05-03T13:06:05.497Z" agent="5.0 (Windows NT 10.0; Win64; x64) AppleWebKit/537.36 (KHTML, like Gecko) Chrome/101.0.4951.54 Safari/537.36" etag="af90wzMbEY_VY3RIXEz9" version="17.5.0" type="github">
  <diagram id="iWKNTOUgpukIIGYLg3hr" name="Page-1">
    <mxGraphModel dx="1221" dy="604" grid="1" gridSize="10" guides="1" tooltips="1" connect="1" arrows="1" fold="1" page="1" pageScale="1" pageWidth="827" pageHeight="1169" math="0" shadow="0">
      <root>
        <mxCell id="0" />
        <mxCell id="1" parent="0" />
        <mxCell id="GADvh1nI1tQ5H140N6T1-2" value="Site sophiehasslauer.net" style="html=1;shadow=0;dashed=0;align=center;verticalAlign=middle;shape=mxgraph.arrows2.arrow;dy=0;dx=10;notch=10;" vertex="1" parent="1">
          <mxGeometry x="190" y="477" width="620" height="30" as="geometry" />
        </mxCell>
        <mxCell id="GADvh1nI1tQ5H140N6T1-3" value="Planning prévisionnel du stage" style="text;html=1;strokeColor=none;fillColor=none;align=center;verticalAlign=middle;whiteSpace=wrap;rounded=0;fontSize=20;" vertex="1" parent="1">
          <mxGeometry x="251" y="40" width="326" height="30" as="geometry" />
        </mxCell>
        <mxCell id="GADvh1nI1tQ5H140N6T1-4" value="Durée effective du stage :&amp;nbsp;&lt;span&gt;94 jours, environ 20 semaines&lt;/span&gt;" style="text;html=1;align=left;verticalAlign=middle;resizable=0;points=[];autosize=1;strokeColor=none;fillColor=none;fontSize=13;" vertex="1" parent="1">
          <mxGeometry x="14" y="139.5" width="340" height="20" as="geometry" />
        </mxCell>
        <mxCell id="GADvh1nI1tQ5H140N6T1-5" value="Site FECIT-toolbox.org" style="html=1;shadow=0;dashed=0;align=center;verticalAlign=middle;shape=mxgraph.arrows2.arrow;dy=0;dx=10;notch=10;" vertex="1" parent="1">
          <mxGeometry x="14" y="437" width="546" height="30" as="geometry" />
        </mxCell>
        <mxCell id="GADvh1nI1tQ5H140N6T1-6" value="" style="html=1;shadow=0;dashed=0;align=center;verticalAlign=middle;shape=mxgraph.arrows2.arrow;dy=0;dx=10;notch=10;fontSize=14;fillColor=#fa6800;fontColor=#000000;strokeColor=none;" vertex="1" parent="1">
          <mxGeometry x="14" y="397" width="120" height="30" as="geometry" />
        </mxCell>
        <mxCell id="GADvh1nI1tQ5H140N6T1-7" value="" style="html=1;shadow=0;dashed=0;align=center;verticalAlign=middle;shape=mxgraph.arrows2.arrow;dy=0;dx=10;notch=10;fontSize=14;fillColor=#e51400;fontColor=#ffffff;strokeColor=none;" vertex="1" parent="1">
          <mxGeometry x="126" y="397" width="160" height="30" as="geometry" />
        </mxCell>
        <mxCell id="GADvh1nI1tQ5H140N6T1-8" value="" style="html=1;shadow=0;dashed=0;align=center;verticalAlign=middle;shape=mxgraph.arrows2.arrow;dy=0;dx=10;notch=10;fontSize=14;fillColor=#FAC412;fontColor=#000000;strokeColor=none;" vertex="1" parent="1">
          <mxGeometry x="278" y="397" width="120" height="30" as="geometry" />
        </mxCell>
        <mxCell id="GADvh1nI1tQ5H140N6T1-9" value="" style="html=1;shadow=0;dashed=0;align=center;verticalAlign=middle;shape=mxgraph.arrows2.arrow;dy=0;dx=10;notch=10;fontSize=14;fillColor=#1ba1e2;fontColor=#ffffff;strokeColor=none;" vertex="1" parent="1">
          <mxGeometry x="390" y="397" width="240" height="30" as="geometry" />
        </mxCell>
        <mxCell id="GADvh1nI1tQ5H140N6T1-10" value="" style="html=1;shadow=0;dashed=0;align=center;verticalAlign=middle;shape=mxgraph.arrows2.arrow;dy=0;dx=10;notch=10;fontSize=14;fillColor=#0050ef;fontColor=#ffffff;strokeColor=none;" vertex="1" parent="1">
          <mxGeometry x="622" y="397" width="188" height="30" as="geometry" />
        </mxCell>
        <mxCell id="GADvh1nI1tQ5H140N6T1-11" value="" style="shape=offPageConnector;whiteSpace=wrap;html=1;fontSize=14;strokeColor=#FF0000;strokeWidth=3;" vertex="1" parent="1">
          <mxGeometry x="221" y="249" width="110" height="137.5" as="geometry" />
        </mxCell>
        <mxCell id="GADvh1nI1tQ5H140N6T1-13" value="événement&lt;br style=&quot;font-size: 13px;&quot;&gt;artistique&lt;br style=&quot;font-size: 13px;&quot;&gt;&lt;br style=&quot;font-size: 13px;&quot;&gt;sites vitrine&lt;br style=&quot;font-size: 13px;&quot;&gt;en ligne&lt;br style=&quot;font-size: 13px;&quot;&gt;obligatoire" style="text;html=1;align=center;verticalAlign=top;resizable=0;points=[];autosize=1;strokeColor=none;fillColor=none;fontSize=13;" vertex="1" parent="1">
          <mxGeometry x="236" y="250.5" width="80" height="100" as="geometry" />
        </mxCell>
        <mxCell id="GADvh1nI1tQ5H140N6T1-14" value="5 février 2022" style="text;html=1;align=center;verticalAlign=middle;resizable=0;points=[];autosize=1;strokeColor=none;fillColor=none;fontSize=14;fontColor=#FF0000;fontStyle=1" vertex="1" parent="1">
          <mxGeometry x="221" y="222" width="110" height="20" as="geometry" />
        </mxCell>
        <mxCell id="GADvh1nI1tQ5H140N6T1-16" value="" style="ellipse;whiteSpace=wrap;html=1;aspect=fixed;fontSize=14;fontColor=#000000;strokeColor=none;strokeWidth=3;fillColor=#fa6800;shadow=0;dashed=0;" vertex="1" parent="1">
          <mxGeometry x="780" y="176" width="15" height="15" as="geometry" />
        </mxCell>
        <mxCell id="GADvh1nI1tQ5H140N6T1-17" value="" style="ellipse;whiteSpace=wrap;html=1;aspect=fixed;fontSize=14;fontColor=#ffffff;strokeColor=none;strokeWidth=3;fillColor=#e51400;shadow=0;dashed=0;" vertex="1" parent="1">
          <mxGeometry x="780" y="198" width="15" height="15" as="geometry" />
        </mxCell>
        <mxCell id="GADvh1nI1tQ5H140N6T1-18" value="" style="ellipse;whiteSpace=wrap;html=1;aspect=fixed;fontSize=13;fontColor=#FF0000;strokeColor=none;strokeWidth=3;fillColor=#FAC412;" vertex="1" parent="1">
          <mxGeometry x="780" y="220" width="15" height="15" as="geometry" />
        </mxCell>
        <mxCell id="GADvh1nI1tQ5H140N6T1-19" value="" style="ellipse;whiteSpace=wrap;html=1;aspect=fixed;fontSize=14;fontColor=#ffffff;strokeColor=none;strokeWidth=3;fillColor=#1ba1e2;shadow=0;dashed=0;" vertex="1" parent="1">
          <mxGeometry x="780" y="243" width="15" height="15" as="geometry" />
        </mxCell>
        <mxCell id="GADvh1nI1tQ5H140N6T1-20" value="" style="ellipse;whiteSpace=wrap;html=1;aspect=fixed;fontSize=14;fontColor=#ffffff;strokeColor=none;strokeWidth=3;fillColor=#0050ef;shadow=0;dashed=0;" vertex="1" parent="1">
          <mxGeometry x="780" y="265" width="15" height="15" as="geometry" />
        </mxCell>
        <mxCell id="GADvh1nI1tQ5H140N6T1-22" value="&lt;font color=&quot;#1a1a1a&quot;&gt;Création graphique et maquette&lt;/font&gt;" style="text;html=1;strokeColor=none;fillColor=none;align=right;verticalAlign=middle;whiteSpace=wrap;rounded=0;fontSize=13;fontColor=#FF0000;flipV=1;" vertex="1" parent="1">
          <mxGeometry x="560" y="168.5" width="200" height="30" as="geometry" />
        </mxCell>
        <mxCell id="GADvh1nI1tQ5H140N6T1-23" value="&lt;font color=&quot;#1a1a1a&quot;&gt;Développement&amp;nbsp;des sites vitrine&lt;/font&gt;" style="text;html=1;strokeColor=none;fillColor=none;align=right;verticalAlign=middle;whiteSpace=wrap;rounded=0;fontSize=13;fontColor=#FF0000;flipV=1;" vertex="1" parent="1">
          <mxGeometry x="560" y="190.5" width="200" height="30" as="geometry" />
        </mxCell>
        <mxCell id="GADvh1nI1tQ5H140N6T1-24" value="&lt;font color=&quot;#1a1a1a&quot;&gt;Finalisation maquette site sophiehasslauer.net&lt;/font&gt;" style="text;html=1;strokeColor=none;fillColor=none;align=right;verticalAlign=middle;whiteSpace=wrap;rounded=0;fontSize=13;fontColor=#FF0000;flipV=1;" vertex="1" parent="1">
          <mxGeometry x="460" y="212.5" width="300" height="30" as="geometry" />
        </mxCell>
        <mxCell id="GADvh1nI1tQ5H140N6T1-25" value="&lt;font color=&quot;#1a1a1a&quot;&gt;Gestion/développement des administrations et BDD&lt;/font&gt;" style="text;html=1;strokeColor=none;fillColor=none;align=right;verticalAlign=middle;whiteSpace=wrap;rounded=0;fontSize=13;fontColor=#FF0000;flipV=1;" vertex="1" parent="1">
          <mxGeometry x="440" y="236.5" width="320" height="30" as="geometry" />
        </mxCell>
        <mxCell id="GADvh1nI1tQ5H140N6T1-26" value="&lt;font color=&quot;#1a1a1a&quot;&gt;Déploiement, corrections et formation à l&#39;administration&lt;/font&gt;" style="text;html=1;strokeColor=none;fillColor=none;align=right;verticalAlign=middle;whiteSpace=wrap;rounded=0;fontSize=13;fontColor=#FF0000;flipV=1;" vertex="1" parent="1">
          <mxGeometry x="440" y="257.5" width="320" height="30" as="geometry" />
        </mxCell>
        <mxCell id="GADvh1nI1tQ5H140N6T1-27" value="" style="rounded=0;whiteSpace=wrap;html=1;fontSize=13;fontColor=#1A1A1A;strokeColor=#1A1A1A;strokeWidth=1;fillColor=none;" vertex="1" parent="1">
          <mxGeometry x="234" y="27.5" width="360" height="55" as="geometry" />
        </mxCell>
        <mxCell id="GADvh1nI1tQ5H140N6T1-28" value="Dates du stage :&amp;nbsp;&lt;span&gt;du 2 mars 2021 au 10 juin 2022&lt;/span&gt;" style="text;html=1;align=left;verticalAlign=middle;resizable=0;points=[];autosize=1;strokeColor=none;fillColor=none;fontSize=13;" vertex="1" parent="1">
          <mxGeometry x="14" y="119.5" width="300" height="20" as="geometry" />
        </mxCell>
      </root>
    </mxGraphModel>
  </diagram>
</mxfile>
